sharedump.org


Hoodwinked.Too.Hood.Vs.Evil.2011.3D.DVDRip.XviD-EXViD 
 
http://www.imdb.com/title/tt0844993/
Subtitles: NL
Date: 2011.10

Director: Mike Disa

Genres: Animation | Comedy | Family

Plot:
Hood vs. Evil will find a teen such as Red Riding Hood who will be training in a distant land
with a mysterious, covert group called the Sister Hoods. When Red and the Wolf get called upon
by Nick Flippers the head of the Happily Ever After Agency over to investigate the disappearance
of Hansel and Gretel.

Cast:
Glenn Close 	 ... 	Granny Puckett (voice) 
Hayden Panettiere 	 ... 	Red Riding Hood (voice) 
Cheech Marin 	 ... 	Mad Hog (voice) 
Patrick Warburton 	 ... 	The Big Bad Wolf (voice) 
Joan Cusack 	 ... 	Verushka the Witch (voice) 
Bill Hader 	 ... 	Hansel (voice) 
David Ogden Stiers 	 ... 	Nicky Flippers (voice) 
Amy Poehler 	 ... 	Gretel (voice) 
Cory Edwards 	 ... 	Twitchy (voice) 
Martin Short 	 ... 	Kirk the Woodsman (voice) 
Brad Garrett 	 ... 	The Giant (voice) 
Andy Dick 	 ... 	Boingo the Bunny (voice) 
David Alan Grier 	 ... 	Moss the Troll (voice) 
Tommy Chong 	 ... 	Stone (voice) 
Phil LaMarr 	 ... 	Wood / Ernesto (voice)

Stats:
Format                           : AVI
Format/Info                      : Audio Video Interleave
File size                        : 699 MiB
Duration                         : 1h 22mn
Overall bit rate                 : 1 180 Kbps
Writing application              : VirtualDubMod 1.5.10.2 (build 2540/release)
Writing library                  : VirtualDubMod build 2540/release

Video
ID                               : 0
Format                           : MPEG-4 Visual
Format profile                   : Advanced Simple@L5
Format settings, BVOP            : Yes
Format settings, QPel            : No
Format settings, GMC             : No warppoints
Format settings, Matrix          : Default (H.263)
Muxing mode                      : Packed bitstream
Codec ID                         : XVID
Codec ID/Hint                    : XviD
Duration                         : 1h 22mn
Bit rate                         : 1 045 Kbps
Width                            : 624 pixels
Height                           : 352 pixels
Display aspect ratio             : 16:9
Frame rate                       : 25.000 fps
Color space                      : YUV
Chroma subsampling               : 4:2:0
Bit depth                        : 8 bits
Scan type                        : Progressive
Bits/(Pixel*Frame)               : 0.190
Stream size                      : 619 MiB (89%)
Writing library                  : XviD 62

Audio
ID                               : 1
Format                           : MPEG Audio
Format version                   : Version 1
Format profile                   : Layer 3
Mode                             : Joint stereo
Mode extension                   : MS Stereo
Codec ID                         : 55
Codec ID/Hint                    : MP3
Duration                         : 1h 22mn
Bit rate mode                    : Variable
Bit rate                         : 128 Kbps
Channel(s)                       : 2 channels
Sampling rate                    : 48.0 KHz
Stream size                      : 72.6 MiB (10%)
Alignment                        : Aligned on interleaves
Interleave, duration             : 24 ms (0.60 video frame)
Interleave, preload duration     : 150 ms
Writing library                  : LAME3.98r
Encoding settings                : -m j -V 4 -q 2 -lowpass 17 --abr 128

